<svg version="1.1" id="Capa_1" x="0px" y="0px" width="168.066px" height="168.066px" viewBox="0 0 168.066 168.066" style="enable-background:new 0 0 168.066 168.066;" xmlns="http://www.w3.org/2000/svg">
  <defs></defs>
  <g></g>
  <g></g>
  <g></g>
  <g></g>
  <g></g>
  <g></g>
  <g></g>
  <g></g>
  <g></g>
  <g></g>
  <g></g>
  <g></g>
  <g></g>
  <g></g>
  <g></g>
  <g transform="matrix(1, 0, 0, 1, -0.105765, -0.025937)">
    <g>
      <path d="M 77.062 24.75 L 91.031 24.75 C 89.569 22.654 90.404 18.626 90.404 18.626 C 91.618 17.639 92.079 15.023 92.079 15.023 C 94.087 13.493 93.994 11.223 93.082 11.251 C 92.319 11.27 92.5 10.657 92.5 10.657 C 93.761 0.503 84.738 0 84.738 0 L 83.359 0 C 83.359 0 74.356 0.515 75.601 10.657 C 75.601 10.657 75.762 11.27 75.017 11.251 C 74.088 11.223 73.997 13.483 76.014 15.023 C 76.014 15.023 76.473 17.639 77.69 18.626 C 77.69 18.626 78.519 22.653 77.062 24.75 Z"></path>
    </g>
  </g>
</svg>