<svg version="1.1" id="Capa_1" x="0px" y="0px" width="168.066px" height="168.066px" viewBox="0 0 168.066 168.066" style="enable-background:new 0 0 168.066 168.066;" xmlns="http://www.w3.org/2000/svg">
  <defs></defs>
  <g></g>
  <g></g>
  <g></g>
  <g></g>
  <g></g>
  <g></g>
  <g></g>
  <g></g>
  <g></g>
  <g></g>
  <g></g>
  <g></g>
  <g></g>
  <g></g>
  <g></g>
  <path d="M 101.409 91.071 C 101.401 91.037 84.809 96.078 84.809 96.078 C 84.563 98.995 86.534 114.426 87.564 120.477 C 88.047 123.35 89.38 128.023 88.9 130.498 C 88.221 133.949 88.025 138.421 88.388 141.03 C 88.625 142.606 89.38 149.905 88.308 152.583 C 87.746 153.984 86.725 161.142 86.725 161.142 C 93.612 160.241 93.597 160.252 93.6 160.242 C 92.845 154.464 94.344 151.252 94.344 151.252 C 99.236 136.74 99.488 132.894 97.541 127.427 C 96.976 125.857 96.85 125.222 97.102 124.532 C 97.687 122.95 97.251 116.589 97.972 114.069 C 99.353 109.199 102.739 96.736 101.409 91.071 Z" style=""></path>
</svg>