<svg version="1.1" id="Capa_1" x="0px" y="0px" width="168.066px" height="168.066px" viewBox="0 0 168.066 168.066" style="enable-background:new 0 0 168.066 168.066;" xmlns="http://www.w3.org/2000/svg">
  <defs></defs>
  <g></g>
  <g></g>
  <g></g>
  <g></g>
  <g></g>
  <g></g>
  <g></g>
  <g></g>
  <g></g>
  <g></g>
  <g></g>
  <g></g>
  <g></g>
  <g></g>
  <g></g>
  <path d="M 83.025 96.04 C 83.025 96.04 66.426 90.962 66.436 91.033 C 67.224 96.794 68.498 109.156 69.878 114.031 C 70.588 116.551 70.167 122.912 70.744 124.494 C 70.996 125.183 70.863 125.806 70.307 127.389 C 68.352 132.856 68.61 136.702 73.502 151.214 C 73.502 151.214 75.003 154.426 74.245 160.204 C 74.245 160.204 74.595 160.252 81.115 161.104 C 81.115 161.104 80.09 153.947 79.535 152.545 C 78.465 149.861 79.217 142.568 79.453 140.992 C 79.815 138.383 79.619 133.911 78.941 130.46 C 78.459 127.985 79.789 123.313 80.275 120.439 C 81.293 114.387 83.272 98.945 83.025 96.04 Z" style=""></path>
</svg>