<svg version="1.1" id="Capa_1" x="0px" y="0px" width="168.066px" height="168.066px" viewBox="0 0 168.066 168.066" style="enable-background:new 0 0 168.066 168.066;" xmlns="http://www.w3.org/2000/svg">
  <defs></defs>
  <g></g>
  <g></g>
  <g></g>
  <g></g>
  <g></g>
  <g></g>
  <g></g>
  <g></g>
  <g></g>
  <g></g>
  <g></g>
  <g></g>
  <g></g>
  <g></g>
  <g></g>
  <g transform="matrix(1, 0, 0, 1, 0.055069, -0.143092)">
    <g>
      <path d="M 115.389 83.272 C 114.39 82.036 113.115 80.355 112.746 79.382 C 112.139 77.702 108.15 82.955 108.15 83.197 C 108.15 84.219 107.929 86.666 107.929 86.666 L 108.019 88.811 C 108.061 89.37 108.369 91.246 108.313 92.16 C 107.959 97.73 108.845 96.691 108.845 96.691 C 109.598 96.691 110.413 92.193 110.413 92.193 C 110.413 93.353 110.129 96.833 110.76 98.146 C 111.521 99.69 112.054 97.869 112.067 97.511 C 112.263 90.389 112.689 92.247 112.689 92.247 C 113.095 98.026 113.609 99.327 114.529 98.879 C 115.229 98.54 114.594 91.957 114.594 91.957 C 115.788 95.858 116.695 96.505 116.695 96.505 C 118.66 97.868 117.442 94.064 117.166 93.32 C 115.7 89.302 115.667 87.924 115.667 87.924 C 117.474 91.525 118.843 91.383 118.843 91.383 C 120.647 90.818 117.331 85.725 115.389 83.272 Z"></path>
    </g>
  </g>
</svg>