<svg version="1.1" id="Capa_1" x="0px" y="0px" width="168.066px" height="168.066px" viewBox="0 0 168.066 168.066" style="enable-background:new 0 0 168.066 168.066;" xmlns="http://www.w3.org/2000/svg">
  <defs></defs>
  <g></g>
  <g></g>
  <g></g>
  <g></g>
  <g></g>
  <g></g>
  <g></g>
  <g></g>
  <g></g>
  <g></g>
  <g></g>
  <g></g>
  <g></g>
  <g></g>
  <g></g>
  <path d="M 98.483 53.588 C 100.42 56.609 98.768 27.993 98.768 27.993 C 91.883 26.956 90.93 24.743 90.93 24.743 C 77.422 24.791 90.338 24.79 76.961 24.743 C 76.961 24.743 76.002 26.962 69.122 27.993 C 69.122 27.993 67.425 56.61 69.362 53.588 C 69.362 53.588 70.741 68.677 69.81 72.916 C 69.81 72.916 65.064 83.382 66.427 91.085 C 66.439 91.152 83.05 96.118 83.016 96.092 L 83.835 96.376 C 84.428 96.376 84.816 96.092 84.816 96.092 C 84.837 96.13 101.407 91.157 101.416 91.085 C 102.373 83.321 98.034 72.916 98.034 72.916 C 97.104 68.677 98.483 53.588 98.483 53.588 Z" style=""></path>
</svg>