<svg version="1.1" id="Capa_1" x="0px" y="0px" width="168.066px" height="168.066px" viewBox="0 0 168.066 168.066" style="enable-background:new 0 0 168.066 168.066;" xmlns="http://www.w3.org/2000/svg">
  <defs></defs>
  <g>
    <g>
      <path d="M 59.899 83.197 C 59.899 82.945 55.951 77.703 55.344 79.383 C 54.98 80.368 53.696 82.036 52.699 83.273 C 50.738 85.725 47.444 90.819 49.204 91.383 C 49.204 91.383 50.563 91.514 52.379 87.924 C 52.379 87.924 52.346 89.303 50.882 93.32 C 50.604 94.074 49.385 97.868 51.353 96.505 C 51.353 96.505 52.257 95.88 53.45 91.957 C 53.45 91.957 52.817 98.551 53.513 98.879 C 54.438 99.327 54.951 98.036 55.36 92.247 C 55.36 92.247 55.786 90.389 55.984 97.511 C 55.995 97.868 56.544 99.699 57.289 98.146 C 57.91 96.838 57.637 93.359 57.637 92.193 C 57.637 92.193 58.454 96.691 59.204 96.691 C 59.204 96.691 60.091 97.742 59.738 92.16 C 59.663 91.246 59.99 89.37 60.028 88.811 L 60.118 86.666 C 60.118 86.666 59.899 84.215 59.899 83.197 Z"></path>
    </g>
  </g>
  <g></g>
  <g></g>
  <g></g>
  <g></g>
  <g></g>
  <g></g>
  <g></g>
  <g></g>
  <g></g>
  <g></g>
  <g></g>
  <g></g>
  <g></g>
  <g></g>
  <g></g>
</svg>